<svg width="960" height="720" viewBox="0 0 960 720" fill="none" xmlns="http://www.w3.org/2000/svg">
  <defs>
    <linearGradient id="sky" x1="0" y1="0" x2="960" y2="720" gradientUnits="userSpaceOnUse">
      <stop stop-color="#FFF3E3"/>
      <stop offset="1" stop-color="#F6D4A8"/>
    </linearGradient>
    <linearGradient id="water" x1="80" y1="410" x2="880" y2="620" gradientUnits="userSpaceOnUse">
      <stop stop-color="#EED9BA"/>
      <stop offset="1" stop-color="#E1B57D"/>
    </linearGradient>
    <linearGradient id="building" x1="0" y1="120" x2="0" y2="520" gradientUnits="userSpaceOnUse">
      <stop stop-color="#4C2B1A"/>
      <stop offset="1" stop-color="#22150F"/>
    </linearGradient>
    <linearGradient id="accent" x1="0" y1="260" x2="0" y2="560" gradientUnits="userSpaceOnUse">
      <stop stop-color="#E06A2A"/>
      <stop offset="1" stop-color="#BA3F0B"/>
    </linearGradient>
  </defs>

  <rect width="960" height="720" fill="url(#sky)"/>
  <circle cx="788" cy="108" r="86" fill="#FFF8EE" opacity="0.82"/>
  <path d="M54 472C178 426 274 414 382 432C492 452 614 516 906 470V720H54V472Z" fill="url(#water)"/>

  <path d="M90 560H870" stroke="#A56739" stroke-width="4" stroke-linecap="round" opacity="0.35"/>

  <g opacity="0.98">
    <path d="M128 560V374H196V560H128Z" fill="url(#building)"/>
    <path d="M196 560V306H278V560H196Z" fill="url(#building)"/>
    <path d="M278 560V248H376V560H278Z" fill="url(#accent)"/>
    <path d="M376 560V330H444V560H376Z" fill="url(#building)"/>
    <path d="M444 560V206H556V560H444Z" fill="url(#building)"/>
    <path d="M556 560V288H630V560H556Z" fill="url(#accent)"/>
    <path d="M630 560V356H702V560H630Z" fill="url(#building)"/>
    <path d="M702 560V266H796V560H702Z" fill="url(#building)"/>
  </g>

  <rect x="236" y="202" width="38" height="46" fill="#22150F"/>
  <rect x="470" y="146" width="60" height="60" fill="#22150F"/>
  <rect x="730" y="216" width="46" height="50" fill="#22150F"/>
  <path d="M502 146V82" stroke="#22150F" stroke-width="10" stroke-linecap="round"/>
  <path d="M748 216V146" stroke="#22150F" stroke-width="10" stroke-linecap="round"/>

  <g fill="#FFF4E4" opacity="0.88">
    <rect x="146" y="404" width="12" height="16"/>
    <rect x="168" y="404" width="12" height="16"/>
    <rect x="214" y="338" width="12" height="16"/>
    <rect x="236" y="338" width="12" height="16"/>
    <rect x="258" y="338" width="12" height="16"/>
    <rect x="304" y="286" width="14" height="18"/>
    <rect x="330" y="286" width="14" height="18"/>
    <rect x="462" y="240" width="16" height="20"/>
    <rect x="490" y="240" width="16" height="20"/>
    <rect x="518" y="240" width="16" height="20"/>
    <rect x="462" y="276" width="16" height="20"/>
    <rect x="490" y="276" width="16" height="20"/>
    <rect x="518" y="276" width="16" height="20"/>
    <rect x="574" y="322" width="14" height="18"/>
    <rect x="598" y="322" width="14" height="18"/>
    <rect x="650" y="392" width="12" height="16"/>
    <rect x="672" y="392" width="12" height="16"/>
    <rect x="722" y="316" width="14" height="18"/>
    <rect x="748" y="316" width="14" height="18"/>
  </g>

  <g transform="translate(96 86)">
    <path d="M120 0C186 0 242 54 242 120C242 186 186 242 120 242C54 242 0 186 0 120C0 54 54 0 120 0Z" fill="#FFF7EE" opacity="0.92"/>
    <path d="M147 72C132 72 120 84 120 99V115L166 143C169 145 170 148 170 152C170 160 162 165 154 161L120 139V164C120 179 132 191 147 191H150C165 191 177 179 177 164V99C177 84 165 72 150 72H147Z" fill="#CF5F28"/>
    <path d="M94 72C109 72 121 84 121 99V115L75 143C72 145 71 148 71 152C71 160 79 165 87 161L121 139V164C121 179 109 191 94 191H91C76 191 64 179 64 164V99C64 84 76 72 91 72H94Z" fill="#CF5F28"/>
    <circle cx="120" cy="121" r="13" fill="#CF5F28"/>
    <text x="120" y="229" text-anchor="middle" fill="#6F6559" font-family="Avenir Next, Helvetica Neue, Arial, sans-serif" font-size="22" font-weight="700" letter-spacing="0.18em">BOSTON</text>
  </g>
</svg>
